<svg width="32" height="32" viewBox="0 0 41 40" fill="none" xmlns="http://www.w3.org/2000/svg" role="img" aria-label="RoundFlow">
  <path
    d="M3.70723 7.78829C3.70723 6.29948 4.91885 5.08786 6.40766 5.08786C7.89648 5.08786 9.1081 6.29948 9.1081 7.78829C9.1081 9.2771 7.89648 10.4887 6.40766 10.4887C4.91885 10.4887 3.70723 9.2771 3.70723 7.78829ZM38.833 12.4269C34.3799 2.03422 22.304 -2.79436 11.9136 1.65643C10.9456 2.07223 10.4963 3.19219 10.9121 4.16014C11.3257 5.1281 12.4456 5.57519 13.4158 5.16163C21.8703 1.53795 31.7019 5.46789 35.3278 13.9269C37.3061 18.5453 37.1094 23.7539 34.7868 28.2159C34.4179 28.9223 34.5387 29.7539 35.0237 30.3284C34.7622 30.7285 34.4783 31.1086 34.1877 31.4841C33.5662 31.1063 32.8442 30.8761 32.0618 30.8761C29.7905 30.8761 27.9508 32.7181 27.9508 34.9871C27.9508 35.5012 28.0558 35.9886 28.2302 36.4446C27.3204 36.9118 26.3748 37.3187 25.38 37.6316C20.804 39.0713 15.9419 38.6443 11.6878 36.4267C11.4866 36.3217 11.2899 36.2099 11.0932 36.0981C11.1759 35.5169 10.9389 34.9133 10.4203 34.5601C6.49708 31.8888 3.85254 27.6637 3.16402 22.9693C3.07236 22.3501 2.63421 21.8717 2.07535 21.6928C1.85851 18.5095 2.48444 15.2301 4.06491 12.1988C4.22809 11.8881 4.10738 11.5036 3.79665 11.3404C3.48369 11.1772 3.10142 11.3002 2.93824 11.6109C1.23929 14.8702 0.570887 18.3978 0.812316 21.818C0.257923 22.131 -0.0773956 22.7614 0.0209645 23.4298C0.836906 29.0005 3.97549 34.0147 8.63194 37.1868C8.90691 37.3723 9.21763 37.4617 9.52613 37.4617C9.83462 37.4617 10.1521 37.3567 10.4181 37.1756C10.6439 37.3053 10.8696 37.4327 11.1021 37.5534C13.8875 39.0064 16.9165 39.7419 19.9702 39.7397C21.9106 39.7397 23.8599 39.4424 25.7645 38.8433C26.8487 38.5012 27.8815 38.0586 28.8718 37.5445C29.6251 38.4833 30.7697 39.0981 32.0662 39.0981C34.3375 39.0981 36.1772 37.2561 36.1772 34.9871C36.1772 33.9588 35.786 33.0288 35.1601 32.3068C35.4977 31.8709 35.824 31.4282 36.1236 30.961C36.2421 30.9834 36.3605 31.0035 36.4768 31.0035C37.1653 31.0035 37.8292 30.6302 38.1713 29.9774C41.0259 24.4983 41.2674 18.1005 38.8352 12.4246L38.833 12.4269ZM23.7235 23.6444L28.1475 28.8754C28.6996 29.5281 28.6169 30.5072 27.9642 31.0594C27.6736 31.3053 27.3181 31.426 26.9649 31.426C26.5245 31.426 26.0864 31.2405 25.7801 30.8761L19.6863 23.6712H14.7794V28.4819H11.6789V11.0543H23.2183C25.7377 11.0543 27.7876 13.1042 27.7876 15.6236V19.1042C27.7876 21.4536 26.0037 23.394 23.719 23.6444H23.7235ZM24.6915 15.6258C24.6915 14.8143 24.032 14.1549 23.2205 14.1549H14.7817V20.5729H23.2205C24.0298 20.5729 24.6915 19.9134 24.6915 19.1042V15.6236V15.6258Z"
    fill="url(#roundflow-favicon-gradient)"
  />
  <defs>
    <linearGradient
      id="roundflow-favicon-gradient"
      x1="34.8561"
      y1="6.76669"
      x2="6.4099"
      y2="35.2129"
      gradientUnits="userSpaceOnUse"
    >
      <stop stop-color="#03C3B5" />
      <stop offset="0.25" stop-color="#02BBB5" />
      <stop offset="0.61" stop-color="#02A8B5" />
      <stop offset="0.8" stop-color="#029BB6" />
    </linearGradient>
  </defs>
</svg>
